<?xml version="1.0" standalone="no"?>
<!DOCTYPE svg PUBLIC "-//W3C//DTD SVG 20010904//EN"
 "http://www.w3.org/TR/2001/REC-SVG-20010904/DTD/svg10.dtd">
<svg version="1.0" xmlns="http://www.w3.org/2000/svg"
 width="48.000000pt" height="54.000000pt" viewBox="0 0 48.000000 54.000000"
 preserveAspectRatio="xMidYMid meet">

<g transform="translate(0.000000,54.000000) scale(0.100000,-0.100000)"
fill="#000000" stroke="none">
<path d="M236 514 c-11 -28 -6 -101 7 -111 6 -6 35 -23 64 -39 l51 -28 52 24
c28 13 53 27 56 31 2 4 -38 31 -89 61 -135 81 -134 80 -141 62z"/>
<path d="M10 265 c0 -74 2 -135 5 -135 3 0 27 14 55 31 l50 31 0 73 0 73 -50
31 c-28 17 -52 31 -55 31 -3 0 -5 -61 -5 -135z"/>
<path d="M305 174 c-22 -14 -45 -28 -51 -32 -14 -9 -29 -132 -16 -132 8 0 221
115 230 125 7 6 -92 65 -108 64 -8 -1 -33 -12 -55 -25z"/>
</g>
</svg>
